<svg width="144" height="30" viewBox="0 0 144 30" fill="none" xmlns="http://www.w3.org/2000/svg">
<path d="M31.1927 27.0522C30.4627 27.0522 29.7626 26.7574 29.2465 26.2326C28.7303 25.7077 28.4404 24.9959 28.4404 24.2537C28.4404 23.5115 28.7303 22.7997 29.2465 22.2749C29.7626 21.7501 30.4627 21.4552 31.1927 21.4552C31.9226 21.4552 32.6227 21.7501 33.1388 22.2749C33.655 22.7997 33.945 23.5115 33.945 24.2537C33.945 24.9959 33.655 25.7077 33.1388 26.2326C32.6227 26.7574 31.9226 27.0522 31.1927 27.0522ZM33.945 10.2612L37.5413 14.9254H29.3578V10.2612M9.17431 27.0522C8.44436 27.0522 7.7443 26.7574 7.22815 26.2326C6.71199 25.7077 6.42202 24.9959 6.42202 24.2537C6.42202 23.5115 6.71199 22.7997 7.22815 22.2749C7.7443 21.7501 8.44436 21.4552 9.17431 21.4552C9.90426 21.4552 10.6043 21.7501 11.1205 22.2749C11.6366 22.7997 11.9266 23.5115 11.9266 24.2537C11.9266 24.9959 11.6366 25.7077 11.1205 26.2326C10.6043 26.7574 9.90426 27.0522 9.17431 27.0522ZM34.8624 7.46269H29.3578V0H3.66972C1.63303 0 0 1.66045 0 3.73134V24.2537H3.66972C3.66972 25.7381 4.24967 27.1618 5.28198 28.2114C6.31429 29.2611 7.7144 29.8507 9.17431 29.8507C10.6342 29.8507 12.0343 29.2611 13.0666 28.2114C14.099 27.1618 14.6789 25.7381 14.6789 24.2537H25.6881C25.6881 25.7381 26.268 27.1618 27.3003 28.2114C28.3326 29.2611 29.7327 29.8507 31.1927 29.8507C32.6526 29.8507 34.0527 29.2611 35.085 28.2114C36.1173 27.1618 36.6972 25.7381 36.6972 24.2537H40.367V14.9254L34.8624 7.46269Z" fill="white"/>
<path d="M15.3394 2.38806C13.3314 2.38806 11.5149 3.21418 10.2004 4.55075L11.1317 5.49776C11.6835 4.93521 12.3395 4.48944 13.0617 4.18625C13.7839 3.88305 14.5581 3.72844 15.3394 3.73134C16.9908 3.73134 18.4705 4.40299 19.5405 5.50448L20.4719 4.55746C19.164 3.21418 17.3475 2.38806 15.3394 2.38806ZM12.0697 6.45149L13.0011 7.39851C13.6224 6.77017 14.4631 6.41746 15.3394 6.41746C16.2158 6.41746 17.0565 6.77017 17.6778 7.39851L18.6092 6.45149C18.1802 6.01433 17.6705 5.66766 17.1094 5.43137C16.5483 5.19508 15.9468 5.07385 15.3394 5.07463C14.0646 5.07463 12.9086 5.59851 12.0697 6.45149ZM15.3394 12.4627C14.9891 12.4627 14.653 12.3212 14.4053 12.0692C14.1575 11.8173 14.0183 11.4757 14.0183 11.1194C14.0183 10.7631 14.1575 10.4215 14.4053 10.1696C14.653 9.91764 14.9891 9.77612 15.3394 9.77612C15.6898 9.77612 16.0259 9.91764 16.2736 10.1696C16.5214 10.4215 16.6605 10.7631 16.6605 11.1194C16.6605 11.4757 16.5214 11.8173 16.2736 12.0692C16.0259 12.3212 15.6898 12.4627 15.3394 12.4627ZM17.3211 8.43284H13.3578C13.1826 8.43284 13.0146 8.5036 12.8907 8.62956C12.7668 8.75551 12.6972 8.92635 12.6972 9.10448V17.1642C12.6972 17.3423 12.7668 17.5131 12.8907 17.6391C13.0146 17.7651 13.1826 17.8358 13.3578 17.8358H17.3211C17.4963 17.8358 17.6643 17.7651 17.7882 17.6391C17.9121 17.5131 17.9817 17.3423 17.9817 17.1642V9.10448C17.9817 8.92635 17.9121 8.75551 17.7882 8.62956C17.6643 8.5036 17.4963 8.43284 17.3211 8.43284Z" fill="white"/>
<path d="M57.5055 22.7952C56.3499 22.7952 55.286 22.523 54.3137 21.9785C53.3414 21.434 52.5593 20.6316 51.9674 19.5713C51.3896 18.4967 51.1008 17.1785 51.1008 15.6167C51.1008 14.0693 51.3967 12.751 51.9885 11.6621C52.5945 10.5588 53.3907 9.7206 54.3771 9.14746C55.3776 8.56 56.4556 8.26627 57.6112 8.26627C58.4989 8.26627 59.2951 8.45254 59.9997 8.82507C60.7043 9.18328 61.2891 9.60597 61.7541 10.0931L60.1054 12.1134C59.7531 11.7839 59.3797 11.5188 58.9851 11.3182C58.6046 11.1033 58.1678 10.9958 57.6746 10.9958C57.0545 10.9958 56.4838 11.1749 55.9624 11.5331C55.4551 11.8913 55.0465 12.4072 54.7364 13.0806C54.4405 13.754 54.2925 14.5636 54.2925 15.5093C54.2925 16.9421 54.5955 18.0597 55.2015 18.8621C55.8074 19.6645 56.6177 20.0657 57.6323 20.0657C58.196 20.0657 58.6962 19.9367 59.1331 19.6788C59.584 19.4209 59.9786 19.1128 60.3168 18.7546L61.9655 20.7319C60.81 22.1075 59.3233 22.7952 57.5055 22.7952Z" fill="white"/>
<path d="M66.4473 22.7952C65.4891 22.7952 64.7281 22.4872 64.1645 21.871C63.6008 21.2406 63.319 20.474 63.319 19.5713C63.319 18.4537 63.784 17.5797 64.7141 16.9493C65.6441 16.3188 67.1449 15.8961 69.2164 15.6812C69.1882 15.2084 69.0473 14.8358 68.7936 14.5636C68.5541 14.277 68.1454 14.1337 67.5676 14.1337C67.1308 14.1337 66.6869 14.2197 66.236 14.3916C65.785 14.5636 65.3059 14.8 64.7986 15.1009L63.6783 13.0161C64.3406 12.6006 65.0452 12.2639 65.7921 12.006C66.553 11.7481 67.3422 11.6191 68.1595 11.6191C69.4982 11.6191 70.5269 12.0131 71.2456 12.8012C71.9643 13.5893 72.3236 14.8 72.3236 16.4334V22.5373H69.7871L69.5757 21.4412H69.4912C69.0543 21.8424 68.5822 22.1719 68.0749 22.4299C67.5817 22.6734 67.0392 22.7952 66.4473 22.7952ZM67.5042 20.3451C67.8565 20.3451 68.1595 20.2663 68.4131 20.1087C68.6809 19.9367 68.9486 19.7146 69.2164 19.4424V17.5725C68.1172 17.7158 67.3563 17.9451 66.9335 18.2603C66.5107 18.5612 66.2994 18.9194 66.2994 19.3349C66.2994 19.6788 66.4051 19.9367 66.6164 20.1087C66.8419 20.2663 67.1378 20.3451 67.5042 20.3451Z" fill="white"/>
<path d="M74.9519 22.5373V11.877H77.4884L77.6998 13.7469H77.7844C78.1648 13.0304 78.6228 12.5003 79.1583 12.1564C79.6938 11.7982 80.2293 11.6191 80.7648 11.6191C81.0607 11.6191 81.3073 11.6406 81.5046 11.6836C81.7019 11.7122 81.871 11.7624 82.0119 11.834L81.5046 14.5636C81.3214 14.5063 81.1382 14.4633 80.955 14.4346C80.7859 14.406 80.5886 14.3916 80.3632 14.3916C79.9686 14.3916 79.5529 14.5421 79.116 14.843C78.6933 15.1296 78.341 15.631 78.0592 16.3475V22.5373H74.9519Z" fill="white"/>
<path d="M86.9089 27.0722C86.0916 27.0722 85.3517 26.9791 84.6894 26.7928C84.0271 26.6066 83.4987 26.3128 83.1041 25.9116C82.7095 25.5104 82.5123 24.9946 82.5123 24.3642C82.5123 23.5045 83.0125 22.7881 84.013 22.2149V22.129C83.7453 21.9427 83.5128 21.7063 83.3155 21.4197C83.1323 21.1331 83.0407 20.7678 83.0407 20.3236C83.0407 19.9367 83.1534 19.5642 83.3789 19.206C83.6044 18.8478 83.8862 18.554 84.2244 18.3248V18.2388C83.858 17.9809 83.5269 17.6084 83.2309 17.1212C82.9491 16.634 82.8082 16.0824 82.8082 15.4663C82.8082 14.6066 83.0125 13.8973 83.4212 13.3385C83.8298 12.7654 84.3653 12.3355 85.0276 12.049C85.6899 11.7624 86.3945 11.6191 87.1414 11.6191C87.7614 11.6191 88.304 11.7051 88.769 11.877H92.5949V14.1767H90.925C91.0237 14.3343 91.1012 14.5349 91.1575 14.7785C91.228 15.0221 91.2632 15.2872 91.2632 15.5737C91.2632 16.3904 91.08 17.0639 90.7137 17.594C90.3473 18.1242 89.8541 18.5182 89.234 18.7761C88.614 19.034 87.9164 19.163 87.1414 19.163C86.7327 19.163 86.31 19.0913 85.8731 18.9481C85.6195 19.163 85.4927 19.4281 85.4927 19.7433C85.4927 20.0155 85.6124 20.2161 85.852 20.3451C86.0916 20.474 86.5002 20.5385 87.078 20.5385H88.769C90.0654 20.5385 91.0519 20.7534 91.7283 21.1833C92.4188 21.5988 92.764 22.2866 92.764 23.2466C92.764 23.9773 92.5244 24.6293 92.0453 25.2024C91.5662 25.7899 90.8898 26.2484 90.0161 26.5779C89.1424 26.9075 88.1067 27.0722 86.9089 27.0722ZM87.1414 17.2501C87.5501 17.2501 87.8883 17.0997 88.156 16.7988C88.4378 16.4979 88.5787 16.0537 88.5787 15.4663C88.5787 14.9075 88.4378 14.4848 88.156 14.1982C87.8883 13.8973 87.5501 13.7469 87.1414 13.7469C86.7327 13.7469 86.3875 13.8901 86.1056 14.1767C85.8379 14.4633 85.704 14.8931 85.704 15.4663C85.704 16.0537 85.8379 16.4979 86.1056 16.7988C86.3875 17.0997 86.7327 17.2501 87.1414 17.2501ZM87.395 25.0949C88.0996 25.0949 88.6774 24.966 89.1283 24.7081C89.5793 24.4501 89.8047 24.1421 89.8047 23.7839C89.8047 23.4543 89.6638 23.2322 89.382 23.1176C89.1142 23.003 88.7197 22.9457 88.1983 22.9457H87.1203C86.768 22.9457 86.472 22.9313 86.2325 22.9027C86.007 22.8884 85.8097 22.8597 85.6406 22.8167C85.2601 23.1606 85.0699 23.5116 85.0699 23.8699C85.0699 24.271 85.2813 24.5719 85.704 24.7725C86.1409 24.9875 86.7045 25.0949 87.395 25.0949Z" fill="white"/>
<path d="M96.7088 22.7952C95.7506 22.7952 94.9896 22.4872 94.4259 21.871C93.8623 21.2406 93.5804 20.474 93.5804 19.5713C93.5804 18.4537 94.0455 17.5797 94.9755 16.9493C95.9056 16.3188 97.4063 15.8961 99.4778 15.6812C99.4496 15.2084 99.3087 14.8358 99.0551 14.5636C98.8155 14.277 98.4069 14.1337 97.8291 14.1337C97.3923 14.1337 96.9484 14.2197 96.4974 14.3916C96.0465 14.5636 95.5674 14.8 95.0601 15.1009L93.9398 13.0161C94.6021 12.6006 95.3067 12.2639 96.0535 12.006C96.8145 11.7481 97.6036 11.6191 98.421 11.6191C99.7597 11.6191 100.788 12.0131 101.507 12.8012C102.226 13.5893 102.585 14.8 102.585 16.4334V22.5373H100.049L99.8372 21.4412H99.7526C99.3158 21.8424 98.8437 22.1719 98.3364 22.4299C97.8432 22.6734 97.3007 22.7952 96.7088 22.7952ZM97.7657 20.3451C98.118 20.3451 98.4209 20.2663 98.6746 20.1087C98.9423 19.9367 99.2101 19.7146 99.4778 19.4424V17.5725C98.3787 17.7158 97.6177 17.9451 97.195 18.2603C96.7722 18.5612 96.5608 18.9194 96.5608 19.3349C96.5608 19.6788 96.6665 19.9367 96.8779 20.1087C97.1034 20.2663 97.3993 20.3451 97.7657 20.3451Z" fill="white"/>
<path d="M109.673 22.7952C108.772 22.7952 107.87 22.6233 106.968 22.2794C106.08 21.9355 105.284 21.434 104.579 20.7749L106.355 18.6042C106.848 19.034 107.398 19.3851 108.004 19.6573C108.61 19.9296 109.194 20.0657 109.758 20.0657C110.406 20.0657 110.885 19.9439 111.195 19.7003C111.519 19.4567 111.681 19.1272 111.681 18.7116C111.681 18.2675 111.498 17.9451 111.132 17.7445C110.78 17.5296 110.301 17.2931 109.695 17.0352L107.898 16.2615C107.433 16.0609 106.989 15.7958 106.566 15.4663C106.143 15.1224 105.798 14.6997 105.53 14.1982C105.263 13.6967 105.129 13.1093 105.129 12.4358C105.129 11.6621 105.333 10.96 105.742 10.3296C106.165 9.6991 106.742 9.19761 107.475 8.82507C108.222 8.45254 109.075 8.26627 110.033 8.26627C110.822 8.26627 111.611 8.42388 112.4 8.7391C113.189 9.05433 113.88 9.51284 114.472 10.1146L112.886 12.1134C112.435 11.7552 111.984 11.483 111.534 11.2967C111.083 11.0961 110.582 10.9958 110.033 10.9958C109.497 10.9958 109.067 11.1104 108.743 11.3397C108.433 11.5546 108.278 11.8627 108.278 12.2639C108.278 12.6937 108.476 13.0161 108.87 13.231C109.279 13.446 109.779 13.6752 110.371 13.9188L112.147 14.6496C112.978 14.9934 113.64 15.4663 114.133 16.0681C114.627 16.6699 114.873 17.4651 114.873 18.4537C114.873 19.2275 114.669 19.9439 114.26 20.603C113.852 21.2621 113.26 21.7922 112.485 22.1934C111.71 22.5946 110.773 22.7952 109.673 22.7952Z" fill="white"/>
<path d="M119.601 22.7952C118.643 22.7952 117.882 22.4872 117.318 21.871C116.754 21.2406 116.473 20.474 116.473 19.5713C116.473 18.4537 116.938 17.5797 117.868 16.9493C118.798 16.3188 120.299 15.8961 122.37 15.6812C122.342 15.2084 122.201 14.8358 121.947 14.5636C121.708 14.277 121.299 14.1337 120.721 14.1337C120.284 14.1337 119.841 14.2197 119.39 14.3916C118.939 14.5636 118.46 14.8 117.952 15.1009L116.832 13.0161C117.494 12.6006 118.199 12.2639 118.946 12.006C119.707 11.7481 120.496 11.6191 121.313 11.6191C122.652 11.6191 123.681 12.0131 124.399 12.8012C125.118 13.5893 125.477 14.8 125.477 16.4334V22.5373H122.941L122.729 21.4412H122.645C122.208 21.8424 121.736 22.1719 121.229 22.4299C120.735 22.6734 120.193 22.7952 119.601 22.7952ZM120.658 20.3451C121.01 20.3451 121.313 20.2663 121.567 20.1087C121.835 19.9367 122.102 19.7146 122.37 19.4424V17.5725C121.271 17.7158 120.51 17.9451 120.087 18.2603C119.664 18.5612 119.453 18.9194 119.453 19.3349C119.453 19.6788 119.559 19.9367 119.77 20.1087C119.996 20.2663 120.291 20.3451 120.658 20.3451Z" fill="white"/>
<path d="M128.634 22.5373V14.3487H127.239V12.006L128.634 11.8985V11.3182C128.634 10.5588 128.761 9.87104 129.015 9.25492C129.268 8.63881 129.677 8.14448 130.24 7.77194C130.804 7.3994 131.558 7.21313 132.502 7.21313C132.939 7.21313 133.341 7.25612 133.707 7.34209C134.073 7.42806 134.369 7.51403 134.595 7.6L134.024 9.92119C133.841 9.84955 133.658 9.7994 133.475 9.77074C133.291 9.72776 133.115 9.70627 132.946 9.70627C132.566 9.70627 132.27 9.82806 132.058 10.0716C131.847 10.3009 131.741 10.6878 131.741 11.2322V11.877H133.623V14.3487H131.741V22.5373H128.634Z" fill="white"/>
<path d="M139.796 22.7952C138.795 22.7952 137.893 22.5731 137.09 22.129C136.287 21.6848 135.653 21.0472 135.188 20.2161C134.723 19.3851 134.49 18.3821 134.49 17.2072C134.49 16.0466 134.723 15.0507 135.188 14.2197C135.667 13.3887 136.287 12.751 137.048 12.3069C137.809 11.8484 138.605 11.6191 139.437 11.6191C140.437 11.6191 141.261 11.8484 141.91 12.3069C142.572 12.751 143.065 13.36 143.389 14.1337C143.727 14.8931 143.897 15.76 143.897 16.7343C143.897 17.0066 143.882 17.2788 143.854 17.551C143.826 17.809 143.798 18.0024 143.77 18.1313H137.492C137.633 18.9051 137.95 19.4782 138.443 19.8507C138.936 20.209 139.528 20.3881 140.219 20.3881C140.965 20.3881 141.719 20.1516 142.48 19.6788L143.516 21.5916C142.981 21.9642 142.382 22.2579 141.719 22.4728C141.057 22.6878 140.416 22.7952 139.796 22.7952ZM137.471 16.0466H141.254C141.254 15.4591 141.113 14.9791 140.832 14.6066C140.564 14.2197 140.12 14.0263 139.5 14.0263C139.021 14.0263 138.591 14.1982 138.211 14.5421C137.83 14.8716 137.583 15.3731 137.471 16.0466Z" fill="white"/>
</svg>
